<?xml version="1.0" encoding="UTF-8" standalone="no"?>
<!-- Generator: Adobe Illustrator 18.1.1, SVG Export Plug-In . SVG Version: 6.00 Build 0)  -->

<svg
   xmlns:dc="http://purl.org/dc/elements/1.1/"
   xmlns:cc="http://creativecommons.org/ns#"
   xmlns:rdf="http://www.w3.org/1999/02/22-rdf-syntax-ns#"
   xmlns:svg="http://www.w3.org/2000/svg"
   xmlns="http://www.w3.org/2000/svg"
   xmlns:sodipodi="http://sodipodi.sourceforge.net/DTD/sodipodi-0.dtd"
   xmlns:inkscape="http://www.inkscape.org/namespaces/inkscape"
   version="1.1"
   id="Layer_1"
   x="0px"
   y="0px"
   width="32px"
   height="32px"
   viewBox="0 0 32 32"
   enable-background="new 0 0 32 32"
   xml:space="preserve"
   sodipodi:docname="icons-ok.svg"
   inkscape:version="0.92.1 r15371"><metadata
   id="metadata9"><rdf:RDF><cc:Work
       rdf:about=""><dc:format>image/svg+xml</dc:format><dc:type
         rdf:resource="http://purl.org/dc/dcmitype/StillImage" /></cc:Work></rdf:RDF></metadata><defs
   id="defs7" /><sodipodi:namedview
   pagecolor="#ffffff"
   bordercolor="#666666"
   borderopacity="1"
   objecttolerance="10"
   gridtolerance="10"
   guidetolerance="10"
   inkscape:pageopacity="0"
   inkscape:pageshadow="2"
   inkscape:window-width="1280"
   inkscape:window-height="737"
   id="namedview5"
   showgrid="false"
   inkscape:zoom="10.429825"
   inkscape:cx="19.225504"
   inkscape:cy="15.170308"
   inkscape:window-x="-8"
   inkscape:window-y="-8"
   inkscape:window-maximized="1"
   inkscape:current-layer="Layer_1" />

<path
   style="fill:#000000;fill-opacity:1;fill-rule:nonzero;stroke:none;stroke-width:0.125"
   d="M 1.868045,3e-6 C 0.840795,3e-6 0,0.840423 0,1.867513 V 30.13249 C 0,31.15961 0.840795,32 1.868045,32 h 28.26445 c 1.02708,0 1.86751,-0.84039 1.86751,-1.86751 V 1.867513 c 0,-1.02709 -0.84043,-1.86751 -1.86751,-1.86751 z m 14.13223,5.33333 c 3.03636,0 5.50584,2.46994 5.50584,5.50665 0,3.03533 -2.46948,5.50395 -5.50584,5.50395 -3.03637,0 -5.50611,-2.46862 -5.50611,-5.50395 0,-3.03671 2.46974,-5.50665 5.50611,-5.50665 z m 0,3.22698 c -1.25639,0 -2.27968,1.0226 -2.27968,2.27967 0,1.2557 1.02329,2.2786 2.27968,2.2786 1.25673,0 2.27968,-1.0229 2.27968,-2.2786 0,-1.25707 -1.02295,-2.27967 -2.27968,-2.27967 z m -4.61705,7.97183 c 0.31051,-0.0102 0.62742,0.0692 0.91047,0.24725 2.25383,1.41757 5.15722,1.41825 7.41261,0 0.75428,-0.47472 1.75006,-0.24778 2.22444,0.50723 0.47472,0.75339 0.24761,1.74951 -0.50615,2.22416 -0.99485,0.62551 -2.07633,1.06895 -3.19718,1.32426 l 3.07803,3.078027 c 0.63105,0.62916 0.63105,1.65064 0,2.28103 -0.62967,0.62982 -1.65088,0.62982 -2.27968,0 l -3.02603,-3.02495 -3.02387,3.02495 c -0.31492,0.31454 -0.72783,0.47202 -1.14119,0.47202 -0.4125,0 -0.82458,-0.15748 -1.13984,-0.47202 -0.63019,-0.63039 -0.63004,-1.65119 -5.6e-4,-2.28103 l 3.07749,-3.078027 c -1.12033,-0.25531 -2.20153,-0.69922 -3.19638,-1.32426 -0.75376,-0.47465 -0.98059,-1.47009 -0.50587,-2.22416 0.29627,-0.47188 0.7962,-0.73751 1.3137,-0.75448 z"
   id="path14"
   inkscape:connector-curvature="0" /></svg>